<svg version="1.1" xmlns="http://www.w3.org/2000/svg" width="512" height="512">
<path d="M0 0 C2.12448323 -0.00736836 4.24890215 -0.01922725 6.37335968 -0.03188324 C32.22494972 -0.16394985 57.88178991 1.46504741 83.42115021 5.67996979 C84.06334503 5.78351776 84.70553986 5.88706573 85.36719513 5.99375153 C107.35623594 9.54813529 128.87337439 14.65365256 150.10865021 21.36746979 C150.94879669 21.63108307 151.78894318 21.89469635 152.65454865 22.16629791 C163.41612892 25.59453786 173.77299591 29.82034649 184.10865021 34.36746979 C185.21829132 34.85368805 186.32793243 35.33990631 187.47119904 35.84085846 C211.25091434 46.51263521 211.25091434 46.51263521 215.21880341 56.03038788 C216.27297652 59.98372235 216.31871363 63.64638364 216.22119904 67.69828033 C216.19873644 69.38941504 216.17643041 71.08055183 216.15425873 72.77169037 C216.13897943 73.66339621 216.12370014 74.55510204 216.10795784 75.47382927 C216.03505785 80.26818858 216.02569326 85.06288605 216.00513458 89.85770416 C215.97578413 95.926968 215.92911502 101.99429423 215.8105545 108.06253815 C215.36068815 132.22144094 215.80725993 150.7761974 228.61118317 171.79346466 C231.84933143 177.35953725 233.6905276 183.4334058 235.60865021 189.55496979 C236.20806427 191.41158234 236.20806427 191.41158234 236.81958771 193.30570221 C244.45319469 217.59884567 247.52004922 241.68859323 247.42115021 267.05496979 C247.41841599 268.51172119 247.41841599 268.51172119 247.41562653 269.99790192 C247.37136448 283.99999008 246.95736791 297.61611254 244.10865021 311.36746979 C243.94767853 312.21647858 243.78670685 313.06548737 243.62085724 313.94022369 C235.18429754 358.18151036 214.81564068 399.39472079 184.10865021 432.36746979 C182.93723566 433.71753143 181.77035601 435.07154493 180.60865021 436.42996979 C173.45490533 444.60099031 165.63078552 451.65202716 157.10865021 458.36746979 C155.6275174 459.55662994 155.6275174 459.55662994 154.11646271 460.76981354 C115.09184673 491.57103787 64.69951169 512.14663558 14.58911896 512.60575104 C13.70083405 512.61554489 12.81254913 512.62533875 11.8973465 512.63542938 C-16.7166149 512.88569409 -43.34842567 510.69999815 -70.89134979 502.36746979 C-72.10999725 502.00709625 -72.10999725 502.00709625 -73.35326385 501.63944244 C-95.69630294 494.89635525 -117.97203478 484.02384617 -136.89134979 470.36746979 C-137.5587619 469.89100006 -138.22617401 469.41453033 -138.91381073 468.92362213 C-157.27128593 455.73977517 -173.82849823 441.10000706 -187.89134979 423.36746979 C-188.61838104 422.5076651 -189.34541229 421.64786041 -190.09447479 420.76200104 C-200.81472183 408.07387649 -209.1944524 394.04251249 -216.89134979 379.36746979 C-217.2714621 378.6520401 -217.6515744 377.93661041 -218.04320526 377.19950104 C-235.7785475 343.40617213 -243.35556592 305.6589251 -243.20384979 267.74246979 C-243.20169464 266.7719165 -243.19953949 265.80136322 -243.19731903 264.80139923 C-243.14628319 250.47316081 -242.79893418 236.44561197 -239.89134979 222.36746979 C-239.69267303 221.3843985 -239.49399628 220.40132721 -239.28929901 219.38846588 C-235.77260653 202.47936548 -231.83015971 183.74823359 -222.65380096 168.91458893 C-210.39218638 148.46496454 -211.228883 128.42269488 -211.71001434 105.18637848 C-211.85939884 97.21429577 -211.88045159 89.24038071 -211.92196274 81.26716423 C-211.94551864 78.51020367 -211.99499458 75.75477022 -212.05025482 72.99828339 C-212.07287256 71.30730233 -212.09527398 69.61631836 -212.11742401 67.92533112 C-212.13928268 67.17364655 -212.16114136 66.42196198 -212.18366241 65.64749908 C-212.2340297 59.90526381 -211.29940493 54.2670005 -207.53163719 49.73024464 C-174.95852017 17.80172061 -106.90549526 9.51181444 -63.89134979 3.36746979 C-62.65433319 3.18667877 -61.41731659 3.00588776 -60.14281464 2.81961823 C-40.18838242 0.06028368 -20.10483922 0.06011031 0 0 Z " fill="#FD3D96" transform="translate(253.89134979248047,-0.36746978759765625)"/>
<path d="M0 0 C2.12448323 -0.00736836 4.24890215 -0.01922725 6.37335968 -0.03188324 C32.22494972 -0.16394985 57.88178991 1.46504741 83.42115021 5.67996979 C84.06334503 5.78351776 84.70553986 5.88706573 85.36719513 5.99375153 C107.35623594 9.54813529 128.87337439 14.65365256 150.10865021 21.36746979 C150.94879669 21.63108307 151.78894318 21.89469635 152.65454865 22.16629791 C163.41612892 25.59453786 173.77299591 29.82034649 184.10865021 34.36746979 C185.21829132 34.85368805 186.32793243 35.33990631 187.47119904 35.84085846 C211.33103093 46.54858965 211.33103093 46.54858965 215.21065521 56.07282257 C216.22215376 59.78390212 216.38256459 63.2073176 216.35157013 67.01932526 C216.35344015 67.76716876 216.35531017 68.51501226 216.35723686 69.28551769 C216.36087544 71.76866779 216.35012075 74.25153219 216.33911896 76.73465729 C216.3383458 78.50377638 216.33835829 80.27289597 216.3391037 82.04201508 C216.33815839 86.79224933 216.3239599 91.5423547 216.30628967 96.29255295 C216.29616597 99.23788459 216.28942899 102.18320408 216.28388214 105.12854767 C216.23518514 130.62232278 216.10153986 156.1162626 215.76032639 181.60792542 C215.73363732 183.68097109 215.7102378 185.75403201 215.68759918 187.82712555 C215.64513438 191.62855815 215.58540408 195.4295949 215.52271271 199.23075104 C215.51114639 200.34421402 215.49958008 201.457677 215.48766327 202.60488129 C215.46780869 203.60846176 215.4479541 204.61204224 215.42749786 205.64603424 C215.41417419 206.51613632 215.40085052 207.3862384 215.38712311 208.28270721 C215.10865021 210.36746979 215.10865021 210.36746979 213.10865021 212.36746979 C208.28512072 212.07805802 204.98974847 210.39085622 200.85865021 207.99246979 C159.78219665 185.18507264 110.44796042 172.78958646 63.85865021 168.24246979 C63.0065799 168.1561026 62.15450958 168.06973541 61.27661896 167.98075104 C59.22097503 167.77287693 57.164862 167.56964961 55.10865021 167.36746979 C55.75318146 168.27754791 56.39771271 169.18762604 57.06177521 170.12528229 C59.3043834 173.67750518 59.77709195 176.22299156 60.10865021 180.36746979 C60.79829865 180.39325104 61.48794708 180.41903229 62.19849396 180.44559479 C72.96048128 181.09515232 80.71185171 184.38495196 88.10865021 192.36746979 C92.22976987 197.95361176 93.21784972 203.28816073 93.28565216 210.10062408 C93.2984874 211.22917313 93.31132263 212.35772217 93.32454681 213.52046967 C93.33562721 215.33772301 93.33562721 215.33772301 93.34693146 217.19168854 C93.3550032 218.44826767 93.36307495 219.7048468 93.3713913 220.99950409 C93.38521214 223.65824804 93.39623385 226.3168689 93.40381622 228.97562408 C93.41484914 232.35685982 93.44922867 235.73743179 93.48898792 239.11843395 C93.52165682 242.37195174 93.52594984 245.62553179 93.53443146 248.87918854 C93.55193954 250.08056961 93.56944763 251.28195068 93.58748627 252.51973724 C93.56363815 261.84771559 91.94316492 270.53295508 85.10865021 277.36746979 C78.42052593 283.1976933 70.80724325 285.44208755 62.10865021 286.36746979 C61.85212677 287.14348541 61.59560333 287.91950104 61.33130646 288.71903229 C57.88121227 298.45364147 53.12265986 307.56003443 46.33130646 315.42606354 C43.73766585 319.54440022 45.320152 324.8039014 46.10865021 329.36746979 C47.82267745 336.62116242 49.9646816 343.71057639 56.10865021 348.36746979 C59.35466179 350.01913218 62.66012981 351.21431954 66.10865021 352.36746979 C67.77897637 353.02491388 69.44672398 353.68907209 71.10865021 354.36746979 C63.84834112 374.68903843 43.03477963 390.7795158 24.20630646 399.75028229 C11.3380636 404.69030572 -7.72299186 405.00014147 -20.41088104 399.62137604 C-21.22943573 399.20758698 -22.04799042 398.79379791 -22.89134979 398.36746979 C-23.80271698 397.94336823 -24.71408417 397.51926666 -25.65306854 397.08231354 C-41.97915319 388.90788622 -60.74272671 372.17842687 -66.89134979 354.36746979 C-66.23908417 354.11352448 -65.58681854 353.85957916 -64.91478729 353.59793854 C-52.46890172 348.97516249 -52.46890172 348.97516249 -44.72728729 338.73075104 C-43.60232696 335.63508681 -42.70383083 332.5590819 -41.89134979 329.36746979 C-41.50269745 327.88827057 -41.50269745 327.88827057 -41.10619354 326.37918854 C-40.10220254 320.76427589 -40.48467562 317.3063192 -43.74584198 312.50833893 C-44.96174096 310.856751 -46.20533987 309.23066355 -47.46166229 307.60965729 C-52.50241414 301.09394614 -56.06754082 293.39222926 -57.89134979 285.36746979 C-59.17009979 285.32621979 -60.44884979 285.28496979 -61.76634979 285.24246979 C-69.08854371 284.41223678 -75.22173256 280.45331022 -80.26634979 275.17996979 C-86.54792155 266.81400369 -87.49473409 257.51507188 -87.42259979 247.35965729 C-87.42834015 245.55055374 -87.42834015 245.55055374 -87.43419647 243.70490265 C-87.43690219 241.17200631 -87.42963577 238.63908138 -87.41283417 236.10623932 C-87.39136978 232.24606505 -87.41270335 228.38774392 -87.43822479 224.52762604 C-87.43558201 222.05496571 -87.43045807 219.58230654 -87.42259979 217.10965729 C-87.43069672 215.96568481 -87.43879364 214.82171234 -87.44713593 213.64307404 C-87.36598832 206.66029636 -86.3378714 201.4609714 -82.89134979 195.36746979 C-82.52384613 194.7125354 -82.15634247 194.05760101 -81.77770233 193.38282013 C-78.57223973 187.98566842 -73.58408993 184.795729 -67.89134979 182.36746979 C-65.94019911 182.0835722 -63.98041546 181.8532697 -62.01634979 181.67996979 C-59.25984556 181.45012898 -59.25984556 181.45012898 -56.89134979 180.36746979 C-54.74887521 176.87242286 -53.84413662 173.32471106 -52.89134979 169.36746979 C-52.56134979 169.03746979 -52.23134979 168.70746979 -51.89134979 168.36746979 C-61.08568736 167.98475207 -69.81032116 169.43297354 -78.82884979 170.99246979 C-79.6223584 171.12785156 -80.415867 171.26323334 -81.23342133 171.40271759 C-121.92542079 178.36411031 -161.46419593 189.1817125 -197.90697479 209.00809479 C-198.78869354 209.47731354 -199.67041229 209.94653229 -200.57884979 210.42996979 C-201.30459198 210.83344635 -202.03033417 211.23692291 -202.77806854 211.65262604 C-205.49296496 212.57097362 -207.17685357 212.17673186 -209.89134979 211.36746979 C-211.50412453 209.75469505 -211.05686965 207.99321347 -211.09667206 205.75955963 C-211.11659714 204.75589355 -211.13652222 203.75222748 -211.15705109 202.71814728 C-211.17378372 201.59953308 -211.19051636 200.48091888 -211.20775604 199.32840729 C-211.22871841 198.14461487 -211.24968079 196.96082245 -211.27127838 195.74115753 C-211.33893728 191.74166894 -211.39743222 187.74212809 -211.45384979 183.74246979 C-211.47420839 182.35330923 -211.4945943 180.96414908 -211.51500702 179.57498932 C-211.87279921 154.79736139 -212.0538959 130.01742747 -212.12252045 105.23740387 C-212.13362246 101.32779918 -212.15149106 97.41831506 -212.17507172 93.50876617 C-212.20249441 88.85495266 -212.21470197 84.20133531 -212.21548653 79.54744339 C-212.21811289 77.82377703 -212.22580432 76.10010977 -212.23895073 74.37649155 C-212.25605893 71.99956095 -212.25420949 69.62334378 -212.2477951 67.24637604 C-212.25701272 66.5620368 -212.26623034 65.87769756 -212.27572727 65.17262077 C-212.22838969 59.64701882 -211.12803965 54.06603362 -207.53214645 49.72759247 C-174.89851858 17.81369833 -106.94627945 9.51764025 -63.89134979 3.36746979 C-62.65433319 3.18667877 -61.41731659 3.00588776 -60.14281464 2.81961823 C-40.18838242 0.06028368 -20.10483922 0.06011031 0 0 Z " fill="#AD79FC" transform="translate(253.89134979248047,-0.36746978759765625)"/>
<path d="M0 0 C0.33 0 0.66 0 1 0 C1.33 21.12 1.66 42.24 2 64 C6.94988693 65.18763247 6.94988693 65.18763247 10.80078125 63.26171875 C11.51782227 62.85872559 12.23486328 62.45573242 12.97363281 62.04052734 C13.74545898 61.59402832 14.51728516 61.1475293 15.3125 60.6875 C53.06688106 39.8923456 95.61556843 29.44550154 137.875 22.6875 C139.4518457 22.42996948 139.4518457 22.42996948 141.06054688 22.16723633 C147.75709921 21.14189361 154.22884287 20.79711576 161 21 C160.0234375 23.18098958 159.046875 25.36197917 158.0703125 27.54296875 C156.93750029 30.00941395 156.93750029 30.00941395 156.1796875 32.7421875 C155 35 155 35 152.75 35.71484375 C151.8425 35.78832031 150.935 35.86179688 150 35.9375 C142.7773663 36.97877091 136.9517313 39.58381409 132.11328125 45.18359375 C126.38414763 53.40968634 125.6829312 60.61952277 125.6640625 70.44921875 C125.6574057 71.65761917 125.6507489 72.86601959 125.64389038 74.11103821 C125.63377932 76.6654 125.62907288 79.21978813 125.62939453 81.77416992 C125.62503477 85.65653773 125.58873298 89.537756 125.55078125 93.41992188 C125.54490993 95.90885031 125.54094265 98.3977841 125.5390625 100.88671875 C125.51750595 102.61072151 125.51750595 102.61072151 125.49551392 104.36955261 C125.54944133 114.01845631 127.3717391 123.30547162 134.2421875 130.50390625 C138.944769 134.50632561 143.44364119 136.97552644 149.625 137.3125 C151.87890625 137.71484375 151.87890625 137.71484375 154 139 C156.14699982 142.79713557 157.67622186 146.66439121 159.23828125 150.7265625 C161.8696496 157.45769001 165.98160201 163.55427825 170.73828125 168.984375 C173.77436243 173.83458518 171.47543578 180.9132224 170.27734375 186.171875 C168.29021507 192.95047845 165.82561333 198.74780018 160 203 C156.07462765 204.81210297 152.06188844 206.13283923 147.93115234 207.39794922 C132.16725603 212.31245849 117.32669143 219.61925276 103.11474609 227.9699707 C100.02089107 229.47689455 96.89407116 229.98299323 93.5234375 230.55859375 C78.23621295 233.23267482 66.69030207 241.21509348 56 252 C55.33226563 252.63421875 54.66453125 253.2684375 53.9765625 253.921875 C44.62155356 263.48853573 40.02645173 277.25704534 37 290 C33.18653872 288.48318506 31.32747903 286.25546974 28.8125 283.0625 C25.780325 279.24255404 22.71147081 275.47404882 19.5625 271.75 C9.83512115 259.81031798 2.13723989 246.60798965 -5 233 C-5.57016846 231.92685547 -5.57016846 231.92685547 -6.15185547 230.83203125 C-23.88719771 197.03870234 -31.46421612 159.29145532 -31.3125 121.375 C-31.31034485 120.40444672 -31.3081897 119.43389343 -31.30596924 118.43392944 C-31.2549334 104.10569102 -30.90758438 90.07814218 -28 76 C-27.80132324 75.01692871 -27.60264648 74.03385742 -27.39794922 73.02099609 C-15.41786118 15.41786118 -15.41786118 15.41786118 0 0 Z " fill="#1D2E79" transform="translate(42,146)"/>
<path d="M0 0 C25.52679122 25.52679122 32.24012606 81.02802234 32.3293457 115.02294922 C32.32550767 116.91113726 32.31986167 118.79932241 32.3125 120.6875 C32.31067719 121.6586676 32.30885437 122.62983521 32.30697632 123.63043213 C32.26271428 137.6325203 31.8487177 151.24864275 29 165 C28.83902832 165.84900879 28.67805664 166.69801758 28.51220703 167.57275391 C20.33273457 210.46587604 0.8677457 251.99934723 -29.16015625 283.984375 C-31.04834855 285.97302337 -31.04834855 285.97302337 -32.62109375 288.265625 C-33.07613281 288.83796875 -33.53117188 289.4103125 -34 290 C-34.66 290 -35.32 290 -36 290 C-36.4021875 288.40285156 -36.4021875 288.40285156 -36.8125 286.7734375 C-40.77290338 271.80748234 -46.84099392 260.04316865 -58 249 C-58.66257812 248.30390625 -59.32515625 247.6078125 -60.0078125 246.890625 C-68.55149031 238.50937452 -82.18485867 231.42949879 -94.12890625 229.68994141 C-101.98995487 228.53771918 -108.22809123 225.04010974 -115.125 221.25 C-125.93920106 215.44338447 -136.54534396 210.49594863 -148.34765625 207.01171875 C-156.06160612 204.68893087 -162.21398448 201.96311149 -166.3046875 194.67578125 C-169.4195968 187.43418555 -171.78169159 178.91713273 -171 171 C-169.2421875 167.9921875 -169.2421875 167.9921875 -166.875 164.875 C-161.66339362 157.77646805 -157.30715022 150.35212814 -154.75 141.875 C-153 139 -153 139 -150.9140625 138.27734375 C-149.18257326 137.96034803 -147.44314275 137.6846247 -145.69921875 137.4453125 C-137.2574206 136.05259906 -131.84363554 131.81859629 -126.8125 125.0625 C-123.90867474 120.15603663 -122.75179332 115.82053886 -122.7253418 110.13745117 C-122.71580978 109.00574997 -122.70627777 107.87404877 -122.69645691 106.70805359 C-122.69782402 104.89383659 -122.69782402 104.89383659 -122.69921875 103.04296875 C-122.69279106 101.15666496 -122.69279106 101.15666496 -122.68623352 99.23225403 C-122.68049796 96.57518486 -122.679045 93.91850509 -122.68432617 91.26147461 C-122.69010726 87.87913356 -122.6732124 84.49734254 -122.6499815 81.11509228 C-122.63158394 77.86188936 -122.63543206 74.60871423 -122.63671875 71.35546875 C-122.627509 70.15206345 -122.61829926 68.94865814 -122.60881042 67.70878601 C-122.66323038 57.73867237 -124.04417645 50.06558106 -131.0703125 42.71875 C-136.36158446 38.00587619 -141.31618681 36.94344181 -148.25 35.9375 C-151.90625 35.24609375 -151.90625 35.24609375 -155 34 C-157.37274685 30.51098361 -158.09315205 27.06856108 -159 23 C-159.66 22.01 -160.32 21.02 -161 20 C-108.26874446 25.63449078 -55.35556754 37.20992518 -8.87109375 63.7890625 C-5.72621189 65.43211139 -5.72621189 65.43211139 -1 64 C-0.67 42.88 -0.34 21.76 0 0 Z " fill="#1D2E79" transform="translate(469,146)"/>
<path d="M0 0 C1.23053101 0.00343414 2.46106201 0.00686829 3.72888184 0.01040649 C17.92906649 0.05697016 32.13252153 0.12081754 46.3125 0.9375 C47.44486084 0.99067383 48.57722168 1.04384766 49.74389648 1.09863281 C56.88661009 1.62641109 56.88661009 1.62641109 60.1875 4.671875 C62.41599634 8.85030564 63.5625 11.44022395 63.5625 16.25 C64.59697266 16.28867188 64.59697266 16.28867188 65.65234375 16.328125 C76.41433107 16.97768253 84.16570151 20.26748217 91.5625 28.25 C95.68361967 33.83614198 96.67169951 39.17069094 96.73950195 45.9831543 C96.75875481 47.67597786 96.75875481 47.67597786 96.77839661 49.40299988 C96.78578354 50.61450211 96.79317047 51.82600433 96.80078125 53.07421875 C96.808853 54.33079788 96.81692474 55.58737701 96.82524109 56.8820343 C96.83906193 59.54077825 96.85008364 62.19939911 96.85766602 64.8581543 C96.86869894 68.23939003 96.90307846 71.619962 96.94283772 75.00096416 C96.97550662 78.25448195 96.97979963 81.508062 96.98828125 84.76171875 C97.00578934 85.96309982 97.02329742 87.1644809 97.04133606 88.40226746 C97.01748795 97.73024581 95.39701471 106.41548529 88.5625 113.25 C81.87437573 119.08022352 74.26109304 121.32461776 65.5625 122.25 C65.30597656 123.02601563 65.04945313 123.80203125 64.78515625 124.6015625 C61.33506206 134.33617168 56.57650966 143.44256464 49.78515625 151.30859375 C47.19151564 155.42693043 48.77400179 160.68643161 49.5625 165.25 C51.27652725 172.50369263 53.4185314 179.5931066 59.5625 184.25 C62.80851158 185.90166239 66.1139796 187.09684976 69.5625 188.25 C71.23282616 188.90744409 72.90057377 189.57160231 74.5625 190.25 C67.30219092 210.57156864 46.48862942 226.66204601 27.66015625 235.6328125 C14.79191339 240.57283593 -4.26914207 240.88267168 -16.95703125 235.50390625 C-18.18486328 234.88322266 -18.18486328 234.88322266 -19.4375 234.25 C-20.80455078 233.61384766 -20.80455078 233.61384766 -22.19921875 232.96484375 C-38.5253034 224.79041643 -57.28887692 208.06095708 -63.4375 190.25 C-62.78523438 189.99605469 -62.13296875 189.74210938 -61.4609375 189.48046875 C-49.01505192 184.8576927 -49.01505192 184.8576927 -41.2734375 174.61328125 C-40.14847717 171.51761703 -39.24998104 168.44161212 -38.4375 165.25 C-38.17839844 164.26386719 -37.91929687 163.27773438 -37.65234375 162.26171875 C-36.64835275 156.64680611 -37.03082582 153.18884942 -40.29199219 148.39086914 C-41.50789117 146.73928121 -42.75149007 145.11319376 -44.0078125 143.4921875 C-49.04856435 136.97647635 -52.61369103 129.27475947 -54.4375 121.25 C-55.71625 121.20875 -56.995 121.1675 -58.3125 121.125 C-65.63469392 120.29476699 -71.76788276 116.33584044 -76.8125 111.0625 C-83.09407176 102.69653391 -84.0408843 93.39760209 -83.96875 83.2421875 C-83.9725769 82.03611847 -83.97640381 80.83004944 -83.98034668 79.58743286 C-83.98305239 77.05453652 -83.97578598 74.52161159 -83.95898438 71.98876953 C-83.93751999 68.12859527 -83.95885356 64.27027413 -83.984375 60.41015625 C-83.98173222 57.93749593 -83.97660828 55.46483675 -83.96875 52.9921875 C-83.97684692 51.84821503 -83.98494385 50.70424255 -83.99328613 49.52560425 C-83.91213852 42.54282657 -82.88402161 37.34350162 -79.4375 31.25 C-79.06999634 30.59506561 -78.70249268 29.94013123 -78.32385254 29.26535034 C-75.11838994 23.86819864 -70.13024014 20.67825921 -64.4375 18.25 C-62.48634932 17.96610241 -60.52656567 17.73579991 -58.5625 17.5625 C-55.80446268 17.32322112 -55.80446268 17.32322112 -53.4375 16.25 C-51.74378495 13.5015425 -50.92294857 10.99907706 -50.12109375 7.87890625 C-49.4375 5.25 -49.4375 5.25 -47.4375 2.25 C-44.57722681 1.67751929 -41.92120737 1.31856637 -39.02734375 1.078125 C-37.70681252 0.9587558 -37.70681252 0.9587558 -36.35960388 0.8369751 C-24.26032956 -0.14484971 -12.13003976 -0.05493714 0 0 Z " fill="#FEA97B" transform="translate(250.4375,163.75)"/>
<path d="M0 0 C0 3 0 3 -1 6.5625 C-2.85848092 13.90215291 -2.93559198 20.33618146 0.63671875 27.11328125 C2.49651136 29.68714897 4.71768993 31.80095829 7 34 C6.27748047 34.1451001 5.55496094 34.2902002 4.81054688 34.43969727 C-12.06380637 37.86013826 -28.57193251 41.81781286 -45 47 C-46.29239474 47.40229374 -47.5848796 47.80429804 -48.87744141 48.20605469 C-52.31167003 49.27668245 -55.73872618 50.36814803 -59.16192627 51.47351074 C-60.49845001 51.9033795 -61.83644827 52.32869394 -63.17596436 52.74914551 C-65.05317799 53.34094205 -66.92324496 53.95526198 -68.79296875 54.5703125 C-69.8708667 54.91852051 -70.94876465 55.26672852 -72.05932617 55.62548828 C-75.84975036 57.3971851 -77.61296391 58.49670454 -80 62 C-80.7457911 66.33191803 -80.70024107 70.61335781 -80.6640625 75 C-80.66884613 76.2684375 -80.67362976 77.536875 -80.67855835 78.84375 C-80.68195934 81.52430824 -80.67527278 84.20258142 -80.65185547 86.8828125 C-80.62336542 90.30975855 -80.63977701 93.73474681 -80.66971779 97.16162109 C-80.69218044 100.44114993 -80.67643061 103.72044556 -80.6640625 107 C-80.67418365 108.2271875 -80.68430481 109.454375 -80.69473267 110.71875 C-80.82298536 117.55909865 -80.82298536 117.55909865 -77.65942383 123.31176758 C-75.07264009 125.28525001 -75.07264009 125.28525001 -71.78515625 125.01171875 C-67.25582294 123.80109199 -62.85795396 122.36960626 -58.4375 120.8125 C-42.2267854 115.25769929 -25.64262176 111.04383358 -9 107 C-7.82695312 106.69964844 -6.65390625 106.39929688 -5.4453125 106.08984375 C0.89185848 104.51652763 6.47002806 103.66796753 13 104 C13.09796875 104.58007812 13.1959375 105.16015625 13.296875 105.7578125 C14.30817922 111.04100522 15.43124012 114.90642249 19 119 C22.87022199 119.44349461 22.87022199 119.44349461 24.6484375 117.53125 C25.21820313 116.8609375 25.78796875 116.190625 26.375 115.5 C40.12631087 101.19154578 60.065734 97.2088657 79.125 96.796875 C81.75046536 96.77151059 84.37455382 96.75376564 87 96.75 C88.02098282 96.74699387 88.02098282 96.74699387 89.06259155 96.743927 C114.4512929 96.72564645 114.4512929 96.72564645 123 101 C122.61121002 103.81872737 122.29189635 104.77195598 120 106.5625 C119.34 107.036875 118.68 107.51125 118 108 C117.67 108.99 117.34 109.98 117 111 C118.155 111.2475 119.31 111.495 120.5 111.75 C134.76096945 115.40280972 145.35345017 125.77672858 153 138 C154.65422753 140.8869196 156.1702064 143.8205598 157.625 146.8125 C157.96805176 147.50529053 158.31110352 148.19808105 158.66455078 148.91186523 C160.92023337 153.83522454 161.48640284 157.58735447 161 163 C159.97900391 165.23364258 159.97900391 165.23364258 159 167 C158.19296631 166.88930176 157.38593262 166.77860352 156.55444336 166.66455078 C108.16080158 160.11021497 57.50316759 156.81222713 9 164 C7.95730957 164.15272369 7.95730957 164.15272369 6.89355469 164.30853271 C-39.67701945 171.16084729 -85.36995765 181.98365571 -127.015625 204.640625 C-127.89734375 205.10984375 -128.7790625 205.5790625 -129.6875 206.0625 C-130.41324219 206.46597656 -131.13898438 206.86945313 -131.88671875 207.28515625 C-134.60161516 208.20350384 -136.28550378 207.80926208 -139 207 C-140.61277474 205.38722526 -140.16551986 203.62574369 -140.20532227 201.39208984 C-140.22524734 200.38842377 -140.24517242 199.38475769 -140.26570129 198.35067749 C-140.28243393 197.23206329 -140.29916656 196.1134491 -140.31640625 194.9609375 C-140.33736862 193.77714508 -140.35833099 192.59335266 -140.37992859 191.37368774 C-140.44758748 187.37419915 -140.50608243 183.3746583 -140.5625 179.375 C-140.5828586 177.98583945 -140.60324451 176.59667929 -140.62365723 175.20751953 C-140.98144941 150.4298916 -141.16254611 125.64995768 -141.23117065 100.86993408 C-141.24227267 96.9603294 -141.26014127 93.05084527 -141.28372192 89.14129639 C-141.31114462 84.48748287 -141.32335217 79.83386553 -141.32413673 75.1799736 C-141.3267631 73.45630724 -141.33445452 71.73263998 -141.34760094 70.00902176 C-141.36470914 67.63209117 -141.3628597 65.25587399 -141.35644531 62.87890625 C-141.36566293 62.19456701 -141.37488054 61.51022778 -141.38437748 60.80515099 C-141.3370399 55.27954903 -140.23668986 49.69856383 -136.64079666 45.36012268 C-105.49031881 14.89666773 -40.92520969 6.51311412 0 0 Z " fill="#9B58FD" transform="translate(183,4)"/>
<path d="M0 0 C3.17787897 0.00461548 6.35537377 -0.00224254 9.53320312 -0.02050781 C25.25434456 -0.10990346 40.85967204 -0.05766288 56.50683594 1.64770508 C57.57873169 1.76417892 58.65062744 1.88065277 59.75500488 2.00065613 C67.92176014 3.01582712 76.2593027 4.28689059 82.28808594 10.31567383 C84.92683497 14.04035552 85.66543399 16.56720762 85.67626953 21.11230469 C85.68572601 22.2537645 85.6951825 23.3952243 85.70492554 24.5712738 C85.6958165 26.40734947 85.6958165 26.40734947 85.68652344 28.28051758 C85.6908287 30.17961632 85.6908287 30.17961632 85.69522095 32.11708069 C85.69726126 34.79288596 85.69324722 37.46786735 85.67919922 40.14355469 C85.66212469 43.56100226 85.67194287 46.97774202 85.68991661 50.39516354 C85.70341112 53.66947299 85.69394073 56.94369885 85.68652344 60.21801758 C85.69259613 61.44004379 85.69866882 62.66207001 85.70492554 63.92112732 C85.61846352 74.38648413 85.61846352 74.38648413 82.28808594 79.31567383 C81.69833984 80.20319336 81.69833984 80.20319336 81.09667969 81.10864258 C74.96346684 87.34669667 65.53151675 87.40730222 57.28808594 88.31567383 C56.50884766 88.41283691 55.72960937 88.51 54.92675781 88.61010742 C40.7811318 90.32300761 40.7811318 90.32300761 35.60058594 87.12817383 C34.48125984 86.20882658 33.37863249 85.26898306 32.28808594 84.31567383 C27.19535324 80.19503451 23.52269149 79.70011157 17.23339844 79.71411133 C15.94283035 79.70125595 15.94283035 79.70125595 14.62619019 79.68814087 C12.81251532 79.67669534 10.99874869 79.67562355 9.18505859 79.68432617 C6.42742268 79.690641 3.67409711 79.64371956 0.91699219 79.59301758 C-0.8525337 79.58847001 -2.62207102 79.58706534 -4.39160156 79.58911133 C-5.20644012 79.57069183 -6.02127869 79.55227234 -6.86080933 79.53329468 C-12.5497327 79.62405391 -15.63273487 81.15353017 -19.94816589 84.84446716 C-24.43156803 88.58423638 -28.91149467 89.70363803 -34.66137695 89.32641602 C-35.3586792 89.26099609 -36.05598145 89.19557617 -36.77441406 89.12817383 C-37.51103271 89.06919922 -38.24765137 89.01022461 -39.0065918 88.94946289 C-41.24426379 88.75963777 -43.4774709 88.54001752 -45.71191406 88.31567383 C-47.01128906 88.20094727 -48.31066406 88.0862207 -49.64941406 87.96801758 C-56.6155132 87.19484063 -62.43631368 86.17932556 -67.71191406 81.31567383 C-71.43037513 76.54841605 -72.83015545 73.00360458 -72.87304688 67.02148438 C-72.88745819 65.39916145 -72.88745819 65.39916145 -72.90216064 63.74406433 C-72.90641052 62.57531265 -72.9106604 61.40656097 -72.91503906 60.20239258 C-72.92073914 59.00008499 -72.92643921 57.7977774 -72.93231201 56.55903625 C-72.94176482 54.01283652 -72.9482971 51.46662453 -72.95214844 48.92041016 C-72.96184928 45.0291605 -72.99286906 41.13844001 -73.02441406 37.24731445 C-73.03094461 34.7740103 -73.03619488 32.30070237 -73.04003906 29.82739258 C-73.05238586 28.66471359 -73.06473267 27.50203461 -73.07745361 26.30412292 C-73.05891909 19.56617235 -72.53668861 15.02016387 -68.34472656 9.52270508 C-53.13903188 -4.54059286 -19.50554171 -0.03075238 0 0 Z " fill="#02C0FB" transform="translate(250.7119140625,187.684326171875)"/>
<path d="M0 0 C1.5078125 2.01953125 1.5078125 2.01953125 3.125 4.8125 C12.60324083 20.32415883 25.07667459 32.70006754 40.890625 41.6328125 C41.58671875 42.08398438 42.2828125 42.53515625 43 43 C43 43.66 43 44.32 43 45 C35.34704143 51.44690492 25.27760233 53.77392084 15.75 55.875 C-5.62410821 60.65223903 -26.97294274 71.41892218 -39.1015625 90.265625 C-46.01211244 101.6581021 -48.56980721 113.07344263 -51 126 C-67.38283708 123.96354344 -86.51492525 104.05883985 -98.44433594 93.35351562 C-99.90778557 92.08023177 -101.44080742 90.88819585 -102.9765625 89.703125 C-105.54426662 87.5775935 -107.36247915 85.90374337 -109 83 C-109.63609512 71.2640451 -100.30500266 55.85875881 -92.8984375 47.078125 C-92.27195312 46.39234375 -91.64546875 45.7065625 -91 45 C-89.87464844 43.75476563 -89.87464844 43.75476563 -88.7265625 42.484375 C-78.68468973 31.90397908 -64.71921417 22.71828128 -49.94702148 20.72265625 C-41.99608723 19.53423068 -35.61627586 16.00840469 -28.625 12.1875 C-6.05838558 0 -6.05838558 0 0 0 Z " fill="#E2379E" transform="translate(187,354)"/>
<path d="M0 0 C1.02098282 -0.00300613 1.02098282 -0.00300613 2.06259155 -0.006073 C27.4512929 -0.02435355 27.4512929 -0.02435355 36 4.25 C35.61121002 7.06872737 35.29189635 8.02195598 33 9.8125 C32.34 10.286875 31.68 10.76125 31 11.25 C30.67 12.24 30.34 13.23 30 14.25 C31.7325 14.62125 31.7325 14.62125 33.5 15 C47.76096945 18.65280972 58.35345017 29.02672858 66 41.25 C67.65422753 44.1369196 69.1702064 47.0705598 70.625 50.0625 C71.13957764 51.10168579 71.13957764 51.10168579 71.66455078 52.16186523 C73.92023337 57.08522454 74.48640284 60.83735447 74 66.25 C72.97900391 68.48364258 72.97900391 68.48364258 72 70.25 C71.19296631 70.13930176 70.38593262 70.02860352 69.55444336 69.91455078 C17.13204934 62.81456901 -38.59043943 59.12307099 -90.83349609 69.4230957 C-94.18177223 70.07214746 -96.75603564 70.46546006 -100 69.25 C-99.34 69.25 -98.68 69.25 -98 69.25 C-98.350625 68.404375 -98.70125 67.55875 -99.0625 66.6875 C-100.3705255 61.89140651 -100.16883869 58.52701101 -97.87109375 54.05078125 C-92.22163424 44.98393752 -85.80728657 40.05665573 -75.734375 36.5859375 C-71.07233877 34.3081998 -68.86969438 30.1572354 -66.1875 25.875 C-56.94935367 12.0748061 -42.94694898 5.40792957 -27.13476562 1.67138672 C-18.20556509 -0.09117048 -9.06632284 0.01300371 0 0 Z " fill="#8A37FE" transform="translate(270,100.75)"/>
<path d="M0 0 C2.00800973 0.71583069 4.00910366 1.45127441 6.00390625 2.203125 C7.07705078 2.59927002 8.15019531 2.99541504 9.25585938 3.40356445 C17.49536874 6.51487484 25.55789658 9.9786068 33.56640625 13.640625 C34.6330249 14.12692383 35.69964355 14.61322266 36.79858398 15.11425781 C55.86762528 24.05556306 55.86762528 24.05556306 60.56640625 33.453125 C60.68003898 35.92852781 60.73420699 38.3764689 60.7434082 40.8527832 C60.7499794 41.61557587 60.7565506 42.37836853 60.76332092 43.16427612 C60.78306687 45.69415379 60.7947194 48.22397205 60.8046875 50.75390625 C60.80876303 51.61740377 60.81283855 52.4809013 60.81703758 53.37056541 C60.83790392 57.94097022 60.85220315 62.51134495 60.86157227 67.08178711 C60.87263756 71.80311387 60.90703701 76.52396942 60.94674397 81.24512959 C60.97288689 84.87484108 60.98126202 88.50443992 60.98485374 92.13423729 C60.98972579 93.87456634 61.00135739 95.61489016 61.01989174 97.35512733 C61.04423432 99.79222588 61.04332755 102.22810036 61.03637695 104.6652832 C61.04918701 105.38287308 61.06199707 106.10046295 61.07519531 106.83979797 C61.02527274 111.64742512 59.9735463 114.07828529 56.56640625 117.453125 C53.70695476 118.88285074 51.75478155 118.7197618 48.56640625 118.453125 C46.09503966 117.39479182 43.84801201 116.30153615 41.50390625 115.015625 C27.62122805 107.76560046 13.23606103 101.69027188 -1.68652344 96.92358398 C-9.69927789 94.28374256 -16.28577324 91.11063979 -20.43359375 83.453125 C-22.40970665 79.34801917 -22.69602537 76.00389694 -22.72412109 71.46313477 C-22.73083832 70.77953888 -22.73755554 70.09594299 -22.74447632 69.39163208 C-22.76340064 67.14252359 -22.76737739 64.89371429 -22.76953125 62.64453125 C-22.77596219 61.07421244 -22.78269077 59.50389482 -22.78970337 57.93357849 C-22.80166156 54.64603904 -22.80538561 51.35860458 -22.80419922 48.07104492 C-22.80399591 43.86661956 -22.83131625 39.66286923 -22.86574364 35.45860386 C-22.88802135 32.21657746 -22.89203653 28.97471343 -22.89097977 25.73261833 C-22.89333371 24.18291837 -22.90214569 22.6332138 -22.9176445 21.08358955 C-22.93732705 18.91275314 -22.93145973 16.74337155 -22.91943359 14.57250977 C-22.92228363 13.33960709 -22.92513367 12.10670441 -22.92807007 10.83644104 C-22.22864005 6.05078657 -19.92455287 3.10974625 -16.74609375 -0.421875 C-11.37691405 -3.03390837 -5.44926189 -1.75170256 0 0 Z " fill="#3EE9DC" transform="translate(408.43359375,224.546875)"/>
<path d="M0 0 C3.72750668 3.19500572 5.95517776 6.33675151 6.69543457 11.23812866 C6.69861694 12.46198273 6.70179932 13.68583679 6.70507812 14.94677734 C6.7120874 15.62730667 6.71909668 16.307836 6.72631836 17.00898743 C6.74382472 19.24339445 6.73230072 21.47651911 6.71875 23.7109375 C6.72144769 25.27503704 6.72533242 26.83913493 6.73034668 28.40322876 C6.73623225 31.67653416 6.72771198 34.94940189 6.70898438 38.22265625 C6.68623266 42.40115035 6.69929901 46.57861447 6.72327423 50.75707054 C6.73779039 53.9863549 6.73309914 57.21539875 6.72276306 60.4446907 C6.72010983 61.98434193 6.72331576 63.52401557 6.73268127 65.06364059 C6.7793113 74.88581995 6.35921823 81.77623328 -0.0625 89.625 C-6.54590293 94.9296024 -14.4976121 97.26372857 -22.3125 99.9375 C-35.89125441 104.69675009 -50.1466013 109.88387466 -62.42871094 117.49658203 C-65.51439157 119.28086643 -67.2975058 119.38760332 -70.8125 118.875 C-73.51240662 117.07506226 -75.3543865 115.791227 -76.8125 112.875 C-76.92612929 110.40486767 -76.98030035 107.96225616 -76.98950195 105.49121094 C-76.99607315 104.73002457 -77.00264435 103.9688382 -77.00941467 103.18458557 C-77.029163 100.65951442 -77.04081456 98.13450282 -77.05078125 95.609375 C-77.05485678 94.74712563 -77.0589323 93.88487625 -77.06313133 92.99649811 C-77.08400012 88.43142434 -77.09829747 83.8663807 -77.10766602 79.30126953 C-77.11872314 74.58900852 -77.15311246 69.87722068 -77.19283772 65.1651268 C-77.21900417 61.53966402 -77.22735794 57.91431386 -77.23094749 54.28876495 C-77.23581458 52.55205342 -77.24743208 50.81534697 -77.26598549 49.07872772 C-77.29037482 46.64422846 -77.28941257 44.21095162 -77.2824707 41.77636719 C-77.29528076 41.06237259 -77.30809082 40.34837799 -77.32128906 39.61274719 C-77.2690363 34.57037428 -75.94072971 31.77507142 -72.8125 27.875 C-68.31066503 23.58224881 -63.38151334 20.77894323 -57.875 17.9375 C-57.03960693 17.50219971 -56.20421387 17.06689941 -55.34350586 16.6184082 C-47.99769193 12.85205996 -40.52401831 9.8052015 -32.8125 6.875 C-30.68415872 5.98713415 -28.55894405 5.09172205 -26.4375 4.1875 C-8.3238543 -3.32954172 -8.3238543 -3.32954172 0 0 Z " fill="#FEC142" transform="translate(119.8125,224.125)"/>
<path d="M0 0 C1.23053101 0.00343414 2.46106201 0.00686829 3.72888184 0.01040649 C17.92906649 0.05697016 32.13252153 0.12081754 46.3125 0.9375 C47.44486084 0.99067383 48.57722168 1.04384766 49.74389648 1.09863281 C56.88661009 1.62641109 56.88661009 1.62641109 60.1875 4.671875 C62.41599634 8.85030564 63.5625 11.44022395 63.5625 16.25 C64.59697266 16.28867188 64.59697266 16.28867188 65.65234375 16.328125 C76.41433107 16.97768253 84.16570151 20.26748217 91.5625 28.25 C95.68361967 33.83614198 96.67169951 39.17069094 96.73950195 45.9831543 C96.75875481 47.67597786 96.75875481 47.67597786 96.77839661 49.40299988 C96.78578354 50.61450211 96.79317047 51.82600433 96.80078125 53.07421875 C96.808853 54.33079788 96.81692474 55.58737701 96.82524109 56.8820343 C96.83906193 59.54077825 96.85008364 62.19939911 96.85766602 64.8581543 C96.86869894 68.23939003 96.90307846 71.619962 96.94283772 75.00096416 C96.97550662 78.25448195 96.97979963 81.508062 96.98828125 84.76171875 C97.00578934 85.96309982 97.02329742 87.1644809 97.04133606 88.40226746 C97.01748795 97.73024581 95.39701471 106.41548529 88.5625 113.25 C80.22327389 120.5195348 70.51400207 121.79883301 59.8125 122.875 C58.61149658 122.99979736 57.41049316 123.12459473 56.1730957 123.25317383 C45.63191081 124.31016801 35.15412439 125.04610214 24.5625 125.25 C23.92052673 125.2633136 23.27855347 125.2766272 22.61712646 125.29034424 C-1.23264743 125.77021477 -24.72621072 124.90975312 -48.4375 122.25 C-49.45724411 122.1391658 -49.45724411 122.1391658 -50.49758911 122.02609253 C-52.53122717 121.80140772 -54.56247255 121.56143569 -56.59375 121.31640625 C-57.77646484 121.17662354 -58.95917969 121.03684082 -60.17773438 120.89282227 C-67.35569115 119.47733693 -73.69423734 115.21132061 -78.09020996 109.36251831 C-83.28653026 101.21481332 -84.03574641 92.67426474 -83.96875 83.2421875 C-83.9725769 82.03611847 -83.97640381 80.83004944 -83.98034668 79.58743286 C-83.98305239 77.05453652 -83.97578598 74.52161159 -83.95898438 71.98876953 C-83.93751999 68.12859527 -83.95885356 64.27027413 -83.984375 60.41015625 C-83.98173222 57.93749593 -83.97660828 55.46483675 -83.96875 52.9921875 C-83.97684692 51.84821503 -83.98494385 50.70424255 -83.99328613 49.52560425 C-83.91213852 42.54282657 -82.88402161 37.34350162 -79.4375 31.25 C-79.06999634 30.59506561 -78.70249268 29.94013123 -78.32385254 29.26535034 C-75.11838994 23.86819864 -70.13024014 20.67825921 -64.4375 18.25 C-62.48634932 17.96610241 -60.52656567 17.73579991 -58.5625 17.5625 C-55.80446268 17.32322112 -55.80446268 17.32322112 -53.4375 16.25 C-51.74378495 13.5015425 -50.92294857 10.99907706 -50.12109375 7.87890625 C-49.4375 5.25 -49.4375 5.25 -47.4375 2.25 C-44.57722681 1.67751929 -41.92120737 1.31856637 -39.02734375 1.078125 C-37.70681252 0.9587558 -37.70681252 0.9587558 -36.35960388 0.8369751 C-24.26032956 -0.14484971 -12.13003976 -0.05493714 0 0 Z M-66.8125 32.5625 C-67.78316406 33.42294922 -67.78316406 33.42294922 -68.7734375 34.30078125 C-72.00301378 38.08378258 -72.68857387 41.86533061 -72.72802734 46.73950195 C-72.74078705 47.81444412 -72.75354675 48.88938629 -72.76669312 49.99690247 C-72.76891876 51.14905746 -72.77114441 52.30121246 -72.7734375 53.48828125 C-72.7800943 54.68301559 -72.7867511 55.87774994 -72.79360962 57.10868835 C-72.80372682 59.63453636 -72.80842693 62.16041105 -72.80810547 64.6862793 C-72.81247228 68.5380493 -72.84878684 72.38866748 -72.88671875 76.24023438 C-72.89258842 78.69791276 -72.89655681 81.15559657 -72.8984375 83.61328125 C-72.91280853 84.75936356 -72.92717957 85.90544586 -72.94198608 87.08625793 C-72.9030297 93.95160298 -72.13354114 98.41497154 -68.4375 104.25 C-64.03012468 108.43700655 -60.03879488 110.36666652 -54.04296875 111.1015625 C-53.00462891 111.23046875 -51.96628906 111.359375 -50.89648438 111.4921875 C-49.81689453 111.61851562 -48.73730469 111.74484375 -47.625 111.875 C-46.02301758 112.07609375 -46.02301758 112.07609375 -44.38867188 112.28125 C-32.53706719 113.93958286 -32.53706719 113.93958286 -21.4375 110.25 C-20.21607448 109.2356864 -19.00315361 108.21107408 -17.79736328 107.17822266 C-13.25507906 103.74117416 -9.69268342 103.39740294 -4.1171875 103.5234375 C-2.82374924 103.52194199 -2.82374924 103.52194199 -1.50418091 103.52041626 C0.30606375 103.52506848 2.11632491 103.54435261 3.92626953 103.57763672 C6.6877045 103.62500351 9.44529052 103.61872039 12.20703125 103.60546875 C13.9739812 103.61661941 15.74091502 103.6308374 17.5078125 103.6484375 C18.32669952 103.64661469 19.14558655 103.64479187 19.98928833 103.64291382 C26.16628849 103.79494748 29.61020543 105.66923014 34.30078125 109.76953125 C39.32959684 113.8998984 44.47036701 113.59556141 50.63769531 113.05834961 C52.94961746 112.81450235 55.25518613 112.53393297 57.5625 112.25 C58.75431885 112.1257666 58.75431885 112.1257666 59.97021484 111.99902344 C72.21863124 110.80066506 72.21863124 110.80066506 82.25 104.1640625 C85.04813263 100.08345242 85.81756658 96.38199035 85.88476562 91.48510742 C85.90398071 90.350103 85.9231958 89.21509857 85.94299316 88.04570007 C85.95149292 86.82792374 85.95999268 85.6101474 85.96875 84.35546875 C85.98015015 83.09414627 85.99155029 81.83282379 86.0032959 80.53327942 C86.02217533 77.86603383 86.03597917 75.19923708 86.04296875 72.53198242 C86.05392431 69.13220896 86.10196705 65.73404331 86.15891266 62.33477306 C86.20536472 59.07096226 86.20907711 55.80706367 86.21875 52.54296875 C86.25579041 50.72541328 86.25579041 50.72541328 86.2935791 48.87113953 C86.25810168 42.106529 85.60455583 37.90589837 81.11437988 32.71577454 C66.38962133 18.80801249 29.70171248 23.90402142 10.53491211 23.93432617 C7.35019816 23.93895831 4.16586605 23.93201831 0.98120117 23.91381836 C-34.97886819 21.51185483 -34.97886819 21.51185483 -66.8125 32.5625 Z " fill="#E5F6FA" transform="translate(250.4375,163.75)"/>
<path d="M0 0 C0.0990984 5.03534236 0.1715758 10.07011342 0.21972656 15.10620117 C0.23980505 16.81821586 0.26707392 18.53016228 0.30175781 20.24194336 C0.35044401 22.70704008 0.37300573 25.1712279 0.390625 27.63671875 C0.41127014 28.39836838 0.43191528 29.16001801 0.45318604 29.94474792 C0.45473825 33.64576175 0.13777178 35.78047173 -1.84765625 38.9440918 C-6.05936802 42.96709824 -11.15888764 43.26618999 -16.75 43.875 C-35.5175478 46.16771963 -53.9247406 51.4961412 -71.7578125 57.64453125 C-72.428125 57.87416565 -73.0984375 58.10380005 -73.7890625 58.34039307 C-77.12842359 59.48544557 -80.4606427 60.64621046 -83.78417969 61.83642578 C-85.00782227 62.26036621 -86.23146484 62.68430664 -87.4921875 63.12109375 C-88.57870605 63.5070874 -89.66522461 63.89308105 -90.78466797 64.29077148 C-94.5460186 65.12043918 -97.25859457 64.84866781 -101 64 C-103.75758855 61.82271965 -104.79651659 60.13912454 -105.41552734 56.67382812 C-105.65043585 53.8507775 -105.70841162 51.08270195 -105.6875 48.25 C-105.68097412 47.25806641 -105.67444824 46.26613281 -105.66772461 45.24414062 C-105.45637838 38.84972527 -104.89596388 34.26449518 -100.13671875 29.62109375 C-99.43160156 29.08613281 -98.72648437 28.55117187 -98 28 C-97.24332031 27.41347656 -96.48664063 26.82695313 -95.70703125 26.22265625 C-89.0876741 21.51038357 -83.18747135 18.91522462 -75 20 C-70.80578017 21.30377508 -66.83297752 22.99664867 -62.98046875 25.10546875 C-60.74391153 26.11566915 -59.07263836 26.36450026 -56.625 26.4375 C-55.89539063 26.47746094 -55.16578125 26.51742187 -54.4140625 26.55859375 C-48.60819253 25.21516429 -45.29139689 20.34895923 -42.27246094 15.58105469 C-41.87317383 14.93555664 -41.47388672 14.29005859 -41.0625 13.625 C-30.36751634 -2.9839641 -18.99360329 -8.37211783 0 0 Z " fill="#93DA7A" transform="translate(207,65)"/>
<path d="M0 0 C3.72750668 3.19500572 5.95517776 6.33675151 6.69543457 11.23812866 C6.69861694 12.46198273 6.70179932 13.68583679 6.70507812 14.94677734 C6.7120874 15.62730667 6.71909668 16.307836 6.72631836 17.00898743 C6.74382472 19.24339445 6.73230072 21.47651911 6.71875 23.7109375 C6.72144769 25.27503704 6.72533242 26.83913493 6.73034668 28.40322876 C6.73623225 31.67653416 6.72771198 34.94940189 6.70898438 38.22265625 C6.68623266 42.40115035 6.69929901 46.57861447 6.72327423 50.75707054 C6.73779039 53.9863549 6.73309914 57.21539875 6.72276306 60.4446907 C6.72010983 61.98434193 6.72331576 63.52401557 6.73268127 65.06364059 C6.7793113 74.88581995 6.35921823 81.77623328 -0.0625 89.625 C-5.73097249 94.26284113 -12.65788977 96.74781995 -19.5 99.1875 C-20.59924805 99.60225586 -20.59924805 99.60225586 -21.72070312 100.02539062 C-28.81836185 102.56621165 -28.81836185 102.56621165 -32.8125 100.875 C-35.40174713 98.36537181 -35.80630542 96.93217432 -36.20018005 93.29681396 C-36.22100897 91.84091838 -36.22530182 90.38472922 -36.21655273 88.92871094 C-36.22341599 88.13143082 -36.23027924 87.3341507 -36.23735046 86.51271057 C-36.25564417 83.8780839 -36.2517759 81.24405156 -36.24609375 78.609375 C-36.25065578 76.7733745 -36.25596142 74.93737571 -36.26197815 73.10137939 C-36.27091539 69.25127228 -36.26848088 65.4013725 -36.25854492 61.55126953 C-36.24708073 56.63069834 -36.26722426 51.7108475 -36.29646206 46.79037094 C-36.31486431 42.99665822 -36.31452314 39.20311661 -36.30882454 35.40937042 C-36.30867168 33.5961837 -36.31468703 31.78298513 -36.32711601 29.969841 C-36.34209277 27.42573303 -36.33129931 24.88293583 -36.31420898 22.33886719 C-36.32387695 21.59780228 -36.33354492 20.85673737 -36.34350586 20.09321594 C-36.2675528 14.65909121 -34.83501859 10.41815163 -31.8125 5.875 C-29.6652832 4.32421875 -29.6652832 4.32421875 -27.36328125 3.5625 C-26.51443359 3.27246094 -25.66558594 2.98242188 -24.79101562 2.68359375 C-23.91123047 2.41675781 -23.03144531 2.14992187 -22.125 1.875 C-21.26455078 1.57722656 -20.40410156 1.27945313 -19.51757812 0.97265625 C-13.07482404 -1.13446905 -6.47685797 -2.59074319 0 0 Z " fill="#FBEE56" transform="translate(119.8125,224.125)"/>
<path d="M0 0 C-0.721875 0.53625 -1.44375 1.0725 -2.1875 1.625 C-7.95153835 6.22350311 -7.95153835 6.22350311 -10.47027588 12.84002686 C-10.66286261 16.45180978 -10.6927011 20.03156798 -10.6640625 23.6484375 C-10.66743597 24.98833658 -10.67229301 26.32823266 -10.67855835 27.66812134 C-10.68591011 30.4707769 -10.6752846 33.27263309 -10.65185547 36.07519531 C-10.62342144 39.64864245 -10.63974449 43.22020726 -10.66971779 46.79358482 C-10.68788561 49.55970136 -10.68198916 52.32538021 -10.66907883 55.09151077 C-10.66416951 57.04339075 -10.67922889 58.99528846 -10.69473267 60.94711304 C-10.57586608 70.00717736 -8.77354047 74.92049679 -2.6875 81.5 C-2.130625 81.995 -1.57375 82.49 -1 83 C-4.06728863 86.53917919 -6.47470635 87.85021676 -11 89 C-13.73289313 89.03360114 -16.29068977 88.96899665 -19 88.75 C-19.74113037 88.69553711 -20.48226074 88.64107422 -21.24584961 88.58496094 C-23.49925408 88.40845028 -25.74928841 88.20783486 -28 88 C-29.95099609 87.82984375 -29.95099609 87.82984375 -31.94140625 87.65625 C-38.90552713 86.87494625 -44.7246573 85.86341418 -50 81 C-53.71846107 76.23274222 -55.11824139 72.68793075 -55.16113281 66.70581055 C-55.17554413 65.08348763 -55.17554413 65.08348763 -55.19024658 63.4283905 C-55.19449646 62.25963882 -55.19874634 61.09088715 -55.203125 59.88671875 C-55.20882507 58.68441116 -55.21452515 57.48210358 -55.22039795 56.24336243 C-55.22985075 53.69716269 -55.23638304 51.1509507 -55.24023438 48.60473633 C-55.24993522 44.71348667 -55.280955 40.82276618 -55.3125 36.93164062 C-55.31903055 34.45833647 -55.32428081 31.98502854 -55.328125 29.51171875 C-55.3404718 28.34903976 -55.3528186 27.18636078 -55.36553955 25.9884491 C-55.34700503 19.25049852 -54.82477455 14.70449005 -50.6328125 9.20703125 C-39.05923126 -1.49703223 -15.00724202 -0.48497371 0 0 Z " fill="#1D8DF2" transform="translate(233,188)"/>
<path d="M0 0 C2.16171517 0.79254113 4.31794381 1.60018976 6.46875 2.421875 C7.54511719 2.81761719 8.62148438 3.21335938 9.73046875 3.62109375 C15.91482454 5.91857063 21.98189171 8.40018135 27.96875 11.171875 C27.05996094 11.60886719 27.05996094 11.60886719 26.1328125 12.0546875 C21.89793043 14.24092626 18.66551044 16.65774061 16.96875 21.171875 C16.65804613 24.50526807 16.65804613 24.50526807 16.6940918 28.27612305 C16.68898087 28.98401474 16.68386993 29.69190643 16.67860413 30.42124939 C16.66471922 32.75878389 16.66566488 35.09602293 16.66796875 37.43359375 C16.66407948 39.06541553 16.65974434 40.69723631 16.65498352 42.32905579 C16.64752241 45.75122352 16.64781052 49.17328812 16.65307617 52.59545898 C16.65885222 56.96205023 16.64198476 61.32821474 16.6187315 65.69473553 C16.60392909 69.06727024 16.60313158 72.43970394 16.60624123 75.8122654 C16.60573067 77.42087457 16.60054318 79.02948979 16.59042931 80.63806725 C16.54447001 88.97456005 16.62044061 96.37022006 19.96875 104.171875 C17.84627318 103.46524415 15.72397873 102.75808273 13.60205078 102.04980469 C11.89534314 101.48079665 10.18802217 100.91362365 8.47998047 100.34863281 C5.95169852 99.50868854 3.42881706 98.65381438 0.90625 97.796875 C0.05998047 97.5184375 -0.78628906 97.24 -1.65820312 96.953125 C-9.86065372 94.1451928 -16.7581486 91.06067759 -21.03125 83.171875 C-23.0073629 79.06676917 -23.29368162 75.72264694 -23.32177734 71.18188477 C-23.32849457 70.49828888 -23.33521179 69.81469299 -23.34213257 69.11038208 C-23.36105689 66.86127359 -23.36503364 64.61246429 -23.3671875 62.36328125 C-23.37361844 60.79296244 -23.38034702 59.22264482 -23.38735962 57.65232849 C-23.39931781 54.36478904 -23.40304186 51.07735458 -23.40185547 47.78979492 C-23.40165216 43.58536956 -23.4289725 39.38161923 -23.46339989 35.17735386 C-23.4856776 31.93532746 -23.48969278 28.69346343 -23.48863602 25.45136833 C-23.49098996 23.90166837 -23.49980194 22.3519638 -23.51530075 20.80233955 C-23.5349833 18.63150314 -23.52911598 16.46212155 -23.51708984 14.29125977 C-23.51993988 13.05835709 -23.52278992 11.82545441 -23.52572632 10.55519104 C-22.8262963 5.76953657 -20.52220912 2.82849625 -17.34375 -0.703125 C-11.67719734 -3.4598263 -5.68326093 -1.91546445 0 0 Z " fill="#02BEFA" transform="translate(409.03125,224.828125)"/>
<path d="M0 0 C3.29596015 4.84943241 2.7191284 9.30411208 2.4921875 15.01953125 C2.46962891 16.09396484 2.44707031 17.16839844 2.42382812 18.27539062 C2.36504348 20.92069975 2.28292707 23.56314538 2.1796875 26.20703125 C1.53539795 25.99554443 0.8911084 25.78405762 0.22729492 25.56616211 C-7.5975771 23.09105869 -16.84741153 20.76960565 -24.6328125 24.64453125 C-30.91670283 29.08204393 -35.43179123 35.40672452 -39.3828125 41.89453125 C-45.78274939 52.18066007 -45.78274939 52.18066007 -51.91015625 53.73828125 C-57.56243284 54.13562934 -61.71269275 52.13742502 -66.55859375 49.3984375 C-71.37634935 46.86058697 -76.46969148 46.45694419 -81.8203125 47.20703125 C-90.81543925 50.5435026 -96.44559273 55.44354714 -101.8203125 63.20703125 C-102.1503125 63.20703125 -102.4803125 63.20703125 -102.8203125 63.20703125 C-102.9194109 58.17168889 -102.9918883 53.13691783 -103.04003906 48.10083008 C-103.06011755 46.38881539 -103.08738642 44.67686897 -103.12207031 42.96508789 C-103.17075651 40.49999117 -103.19331823 38.03580335 -103.2109375 35.5703125 C-103.23158264 34.80866287 -103.25222778 34.04701324 -103.27349854 33.26228333 C-103.27500184 29.6778865 -102.95428189 27.43500884 -101.12524414 24.32250977 C-98.61870643 22.02199613 -96.76607694 21.06439351 -93.55078125 19.99609375 C-92.50881592 19.64192383 -91.46685059 19.28775391 -90.39331055 18.92285156 C-89.27609619 18.56288086 -88.15888184 18.20291016 -87.0078125 17.83203125 C-85.84870361 17.4462793 -84.68959473 17.06052734 -83.49536133 16.66308594 C-79.94341494 15.49016152 -76.38373285 14.3445693 -72.8203125 13.20703125 C-71.78648437 12.87348633 -70.75265625 12.53994141 -69.6875 12.19628906 C-56.96268647 8.11276546 -44.16378249 4.63669366 -31.12109375 1.72705078 C-29.01489659 1.25101089 -26.9174602 0.74855903 -24.8203125 0.234375 C-6.44525042 -4.09746529 -6.44525042 -4.09746529 0 0 Z " fill="#04BEFB" transform="translate(204.8203125,38.79296875)"/>
<path d="M0 0 C0.99 0.845625 1.98 1.69125 3 2.5625 C3.64582031 3.11035156 4.29164063 3.65820312 4.95703125 4.22265625 C6.27269455 5.36725816 7.56443529 6.54026247 8.82421875 7.74609375 C18.14118383 16.51615102 28.62269536 19.91270306 41 22 C40.67765573 43.24541749 35.56302185 60.83392978 21.5625 77.078125 C19 79 19 79 16.0078125 78.9765625 C-1.05249892 73.43750035 -18.96554204 53.4346166 -27 38 C-26.67 37.01 -26.34 36.02 -26 35 C-23.05078125 33.859375 -23.05078125 33.859375 -19.3125 32.75 C-13.22318346 30.73478091 -9.01820409 28.8544597 -6 23 C-2.84289417 15.59457392 -1.18724412 7.93578964 0 0 Z " fill="#FB9360" transform="translate(214,318)"/>
<path d="M0 0 C1.5287018 0.16888515 3.04975946 0.40988976 4.5625 0.6875 C5.69042969 0.86023438 6.81835938 1.03296875 7.98046875 1.2109375 C16.22124818 2.68715721 21.26526869 4.00341692 26.18276978 10.98927307 C27.76290631 14.07941843 27.94245051 16.03066687 27.95068359 19.48413086 C27.96014008 20.62559067 27.96959656 21.76705048 27.9793396 22.94309998 C27.97326691 24.16715042 27.96719421 25.39120087 27.9609375 26.65234375 C27.96380768 27.91840958 27.96667786 29.1844754 27.96963501 30.48890686 C27.97167532 33.16471213 27.96766129 35.83969352 27.95361328 38.51538086 C27.93653875 41.93282844 27.94635693 45.34956819 27.96433067 48.76698971 C27.97782518 52.04129917 27.96835479 55.31552502 27.9609375 58.58984375 C27.97004654 60.42288307 27.97004654 60.42288307 27.9793396 62.29295349 C27.89287758 72.7583103 27.89287758 72.7583103 24.5625 77.6875 C24.16933594 78.27917969 23.77617187 78.87085938 23.37109375 79.48046875 C17.36360926 85.59064528 7.72342647 85.99025947 -0.4375 86.6875 C-2.10415141 86.69463128 -3.77085218 86.69542507 -5.4375 86.6875 C-8.7265044 78.25585701 -8.91146948 70.03643872 -8.90625 61.1171875 C-8.91336752 59.62606527 -8.92106878 58.13494573 -8.92932129 56.64382935 C-8.94268914 53.53574988 -8.94436825 50.42792419 -8.93847656 47.31982422 C-8.93256549 43.35430708 -8.9632643 39.39000792 -9.00359344 35.42472649 C-9.02953827 32.35158833 -9.03234222 29.27874175 -9.02870178 26.20550919 C-9.03038446 24.74397834 -9.03994422 23.28243277 -9.05784607 21.82101059 C-9.13776515 14.49614693 -9.20366782 8.17198036 -4.84606934 1.96658325 C-3.4375 0.6875 -3.4375 0.6875 0 0 Z " fill="#2FD0E2" transform="translate(308.4375,189.3125)"/>
<path d="M0 0 C0 3.3 0 6.6 0 10 C14.19 10 28.38 10 43 10 C43 10.33 43 10.66 43 11 C41.98999939 11.00879936 41.98999939 11.00879936 40.95959473 11.01777649 C34.49176369 11.07662502 28.02423218 11.14918726 21.55670929 11.23571491 C18.23473695 11.27971377 14.91297804 11.31759593 11.59082031 11.34643555 C-21.18630024 9.67600999 -21.18630024 9.67600999 -50.875 19.8125 C-51.42929688 20.29332031 -51.98359375 20.77414063 -52.5546875 21.26953125 C-55.63768518 24.96079605 -56.25250336 28.79193303 -56.29052734 33.48950195 C-56.30328705 34.56444412 -56.31604675 35.63938629 -56.32919312 36.74690247 C-56.33141876 37.89905746 -56.33364441 39.05121246 -56.3359375 40.23828125 C-56.3425943 41.43301559 -56.3492511 42.62774994 -56.35610962 43.85868835 C-56.36622682 46.38453636 -56.37092693 48.91041105 -56.37060547 51.4362793 C-56.37497228 55.2880493 -56.41128684 59.13866748 -56.44921875 62.99023438 C-56.45508842 65.44791276 -56.45905681 67.90559657 -56.4609375 70.36328125 C-56.47530853 71.50936356 -56.48967957 72.65544586 -56.50448608 73.83625793 C-56.46177422 81.36343811 -55.59523433 87.2063656 -50.28344727 92.8112793 C-44.4147893 96.35791647 -38.69428022 97.15888663 -31.9375 97.8125 C-30.88755859 97.93302734 -29.83761719 98.05355469 -28.75585938 98.17773438 C-15.55004403 99.64606923 -15.55004403 99.64606923 -3.5625 94.3125 C-3.046875 93.879375 -2.53125 93.44625 -2 93 C-1.94392578 93.87011719 -1.94392578 93.87011719 -1.88671875 94.7578125 C-1.34210767 101.22907358 0.37563462 105.56345193 4 111 C-7.45755747 111.40280475 -18.79243655 110.35496218 -30.1875 109.26464844 C-32.63435869 109.03440583 -35.08163145 108.83061473 -37.53125 108.6328125 C-47.30380805 107.65952928 -54.46904666 104.94122603 -61.375 97.8125 C-67.659496 89.45103422 -68.60336024 80.14421512 -68.53125 69.9921875 C-68.5350769 68.78611847 -68.53890381 67.58004944 -68.54284668 66.33743286 C-68.54555239 63.80453652 -68.53828598 61.27161159 -68.52148438 58.73876953 C-68.50001999 54.87859527 -68.52135356 51.02027413 -68.546875 47.16015625 C-68.54423222 44.68749593 -68.53910828 42.21483675 -68.53125 39.7421875 C-68.53934692 38.59821503 -68.54744385 37.45424255 -68.55578613 36.27560425 C-68.47463852 29.29282657 -67.44652161 24.09350162 -64 18 C-63.63249634 17.34506561 -63.26499268 16.69013123 -62.88635254 16.01535034 C-59.70205526 10.65383543 -54.69553211 7.32867959 -49 5 C-40.43188456 2.89532267 -31.57221444 2.22453193 -22.8125 1.375 C-21.4849943 1.23989483 -20.15752012 1.1044796 -18.83007812 0.96875 C-12.52495762 0.345551 -6.33628085 -0.17712602 0 0 Z " fill="#A9E5F4" transform="translate(235,177)"/>
<path d="M0 0 C3.82412372 2.53348196 6.85408681 5.68041652 10 9 C10.77601563 9.76957031 11.55203125 10.53914063 12.3515625 11.33203125 C19.82980008 19.08010215 31.1605273 33.76076211 30.96484375 45.0234375 C29.4677698 48.09031775 26.8643035 49.36130793 24 51 C23.04226685 51.56170898 23.04226685 51.56170898 22.06518555 52.13476562 C-4.77035188 67.46758913 -4.77035188 67.46758913 -14 69 C-15.77019299 67.22980701 -15.15521687 64.6735585 -15.17700195 62.27441406 C-15.18983719 61.04934143 -15.20267242 59.8242688 -15.21589661 58.56207275 C-15.22406495 57.21326093 -15.2315085 55.86444455 -15.23828125 54.515625 C-15.24235678 53.83876396 -15.2464323 53.16190292 -15.25063133 52.46453094 C-15.27151389 48.87967735 -15.28580412 45.29486225 -15.29516602 41.70996094 C-15.30621466 38.00977933 -15.34058929 34.31020176 -15.38033772 30.61023331 C-15.40651503 27.76372172 -15.41485894 24.91735349 -15.41844749 22.07073212 C-15.42331336 20.70719082 -15.43492759 19.34365593 -15.45348549 17.98023224 C-15.47788776 16.06802398 -15.47449104 14.15552267 -15.4699707 12.24316406 C-15.47583694 11.15585999 -15.48170319 10.06855591 -15.48774719 8.94830322 C-14.88360066 5.29639666 -13.5441964 3.63728421 -11 1 C-7.3491846 -0.8254077 -3.95701158 -0.91686854 0 0 Z " fill="#E3379F" transform="translate(359,427)"/>
<path d="M0 0 C-4.8193318 14.57908414 -12.34828671 25.97625996 -23 37 C-23.61875 37.71542969 -24.2375 38.43085938 -24.875 39.16796875 C-27.65848471 42.28074964 -29.14763268 43.82309358 -33.3125 44.6875 C-47.49246287 42.04377811 -59.85274657 32.78681836 -68.046875 21.07421875 C-70.84110207 16.53071316 -72.97899062 12.53202177 -74.08813477 7.30078125 C-74.26103531 6.49423096 -74.43393585 5.68768066 -74.61207581 4.85668945 C-74.80409828 3.93762817 -74.80409828 3.93762817 -75 3 C-74.34870621 2.97938507 -73.69741241 2.95877014 -73.02638245 2.93753052 C-66.16238409 2.71883173 -59.29877826 2.48989315 -52.43530273 2.25537109 C-49.88395512 2.16948446 -47.33252223 2.08608922 -44.78100586 2.00537109 C-31.77616613 1.59235717 -18.89499259 1.17609057 -6.00756836 -0.69970703 C-3 -1 -3 -1 0 0 Z " fill="#FEC6AA" transform="translate(316,286)"/>
<path d="M0 0 C1.23053101 0.00343414 2.46106201 0.00686829 3.72888184 0.01040649 C17.92906649 0.05697016 32.13252153 0.12081754 46.3125 0.9375 C47.44486084 0.99067383 48.57722168 1.04384766 49.74389648 1.09863281 C56.88661009 1.62641109 56.88661009 1.62641109 60.1875 4.671875 C62.41599634 8.85030564 63.5625 11.44022395 63.5625 16.25 C61.375 16.10416667 59.1875 15.95833333 57 15.8125 C55.03237118 15.68132475 53.06468911 15.55087281 51.09667969 15.42553711 C49.28876656 15.3003069 47.48214808 15.15576626 45.67675781 14.99829102 C33.539951 14.02366865 21.40048394 14.06391054 9.23144531 14.06469727 C5.46668073 14.0625169 1.70221279 14.04432237 -2.0625 14.02539062 C-14.83674542 13.99671113 -27.38363986 14.34878398 -40.07763672 15.8190918 C-44.22138527 16.28404427 -48.26981709 16.32515494 -52.4375 16.25 C-52.01002197 11.01339409 -51.11162625 6.25825537 -47.4375 2.25 C-44.29783753 1.33123179 -42.09654701 0.96761693 -38.90234375 0.828125 C-38.03101303 0.76659241 -37.15968231 0.70505981 -36.26194763 0.6416626 C-24.19492416 -0.1115446 -12.08475389 -0.05473204 0 0 Z " fill="#FDC6AC" transform="translate(250.4375,163.75)"/>
<path d="M0 0 C4.24039997 1.0027307 8.39639398 2.22606174 12.5625 3.5 C13.72475098 3.85094727 14.88700195 4.20189453 16.08447266 4.56347656 C24.40942097 7.11617583 32.66480748 9.84992756 40.875 12.75 C41.91986572 13.11416016 42.96473145 13.47832031 44.04125977 13.85351562 C53.4686223 17.26661552 53.4686223 17.26661552 57 21 C57.625 24.4375 57.625 24.4375 57 28 C54.875 30.9375 54.875 30.9375 52 33 C46.46300085 33.69419094 42.05565854 31.79444408 37 29.8125 C35.28654455 29.16383472 33.5730024 28.5153984 31.859375 27.8671875 C29.05600235 26.79238092 26.25456094 25.71266116 23.453125 24.6328125 C18.06772401 22.62313847 12.77906229 20.91065256 7.19921875 19.53515625 C5.65282715 19.15242554 5.65282715 19.15242554 4.07519531 18.76196289 C2.02264643 18.26351867 -0.03398695 17.78153277 -2.09472656 17.31811523 C-7.83598352 15.93540158 -11.42189838 14.82102113 -15 10 C-15.83700493 5.98237632 -15.33351744 4.52251066 -13.125 1.0625 C-8.58892822 -1.93130738 -5.20555737 -0.91720727 0 0 Z " fill="#CFB7FC" transform="translate(378,106)"/>
<path d="M0 0 C3.1484375 0.69921875 3.1484375 0.69921875 6.375 1.6875 C7.60347656 2.05875 8.83195312 2.43 10.09765625 2.8125 C10.73977051 3.00972656 11.38188477 3.20695313 12.04345703 3.41015625 C14.61212418 4.18453856 17.19872118 4.89251697 19.78295898 5.61279297 C28.06255172 7.957333 36.19586817 10.70860067 44.3125 13.5625 C45.95085815 14.12650513 45.95085815 14.12650513 47.62231445 14.7019043 C48.6505835 15.06968994 49.67885254 15.43747559 50.73828125 15.81640625 C51.65649658 16.14068604 52.57471191 16.46496582 53.52075195 16.79907227 C56.34124309 18.1652954 58.0150012 19.58215842 60 22 C60.71869236 26.39200889 60.48111179 28.27833231 58 32 C54.58969778 34.27353481 53.17227338 34.108539 49.234375 33.49414062 C45.34087486 32.63307809 41.70331859 31.20791786 38 29.75 C32.0826284 27.49983706 26.17245136 25.31375855 20.125 23.4375 C19.49956299 23.24260986 18.87412598 23.04771973 18.22973633 22.84692383 C14.32037557 21.65167723 10.3900431 20.55816216 6.44140625 19.5 C5.4879834 19.24033447 4.53456055 18.98066895 3.55224609 18.71313477 C1.67723159 18.20547147 -0.20131504 17.71063681 -2.08349609 17.23022461 C-2.9389502 16.99827393 -3.7944043 16.76632324 -4.67578125 16.52734375 C-5.43802002 16.32874756 -6.20025879 16.13015137 -6.9855957 15.92553711 C-9.55938126 14.74298699 -10.54737766 13.4054751 -12 11 C-12.5 8.0625 -12.5 8.0625 -12 5 C-8.38643591 -0.03708934 -5.98205305 -0.38370687 0 0 Z " fill="#CFB7FC" transform="translate(375,137)"/>
<path d="M0 0 C3.16421692 0.78055867 6.30056476 1.6305919 9.43798828 2.51269531 C10.57695557 2.82706543 11.71592285 3.14143555 12.8894043 3.46533203 C52.69448802 14.61619492 52.69448802 14.61619492 57.25048828 21.45019531 C57.6690631 25.28713118 57.79693097 27.56222595 55.75048828 30.88769531 C52.31325438 33.0359665 49.16574578 32.83403522 45.25048828 32.45019531 C41.88330078 31.41894531 41.88330078 31.41894531 38.37548828 29.95019531 C31.07081569 27.02081964 23.65184055 24.62056102 16.12548828 22.32519531 C15.00078125 21.97996826 13.87607422 21.63474121 12.71728516 21.27905273 C8.0328386 19.85315727 3.35262508 18.44738081 -1.39013672 17.22753906 C-2.62248047 16.90914062 -3.85482422 16.59074219 -5.12451172 16.26269531 C-6.65205078 15.90111328 -6.65205078 15.90111328 -8.21044922 15.53222656 C-11.48656183 14.13609857 -12.822941 12.40725734 -14.74951172 9.45019531 C-15.34188561 5.8219052 -15.21693162 4.19027682 -13.24951172 1.07519531 C-9.06753353 -1.64309051 -4.71220882 -0.9422744 0 0 Z " fill="#BF99FC" transform="translate(377.74951171875,42.5498046875)"/>
<path d="M0 0 C0.6503421 0.21332977 1.3006842 0.42665955 1.97073364 0.64645386 C20.94970542 6.89330812 20.94970542 6.89330812 24.3125 11.9375 C24.91796838 15.91629218 24.61095414 17.48500501 22.375 20.875 C18.56100962 23.44360577 17.10247303 23.03202401 12.7409668 22.42504883 C8.87442614 21.64878647 5.33748536 20.28026936 1.6875 18.8125 C-5.67077023 15.98017637 -13.07856374 13.4722516 -20.625 11.1875 C-21.60267334 10.89037109 -22.58034668 10.59324219 -23.58764648 10.28710938 C-28.65736747 8.77012376 -33.70490328 7.43478929 -38.875 6.3125 C-42.37272116 5.47243597 -43.60383737 5.00785267 -46.4375 2.625 C-47.9877296 -0.70799365 -48.44261575 -2.43794441 -47.6875 -6.0625 C-38.01248411 -17.15337187 -12.29266217 -4.06738511 0 0 Z " fill="#CFB7FC" transform="translate(410.6875,84.0625)"/>
<path d="M0 0 C3 2 3 2 5 5 C5.49646478 7.98469895 5.46385964 10.33216885 4 13 C-0.95172092 16.43446284 -5.64947643 17.92140392 -11.5 19.125 C-12.94826723 19.43848897 -14.39618936 19.75357681 -15.84375 20.0703125 C-16.89018677 20.29581787 -16.89018677 20.29581787 -17.95776367 20.52587891 C-19.91229627 20.97963889 -21.84249752 21.53461068 -23.76953125 22.09375 C-27.91398233 23.25640133 -30.71465098 23.42150974 -35 23 C-37.5 21.4375 -37.5 21.4375 -39 19 C-39.53380544 15.26336192 -39.76597084 13.05671894 -37.5078125 9.94140625 C-34.04596359 7.2614391 -30.5810914 6.47079458 -26.375 5.4375 C-24.75104133 5.01662986 -23.12734093 4.59476185 -21.50390625 4.171875 C-20.33625732 3.87313477 -20.33625732 3.87313477 -19.14501953 3.56835938 C-16.50211205 2.86807613 -13.91027466 2.03870283 -11.3125 1.1875 C-7.40356277 0.02556505 -4.09890247 -0.64296509 0 0 Z " fill="#CEB6FC" transform="translate(144,139)"/>
<path d="M0 0 C-0.42152344 0.68707031 -0.84304687 1.37414062 -1.27734375 2.08203125 C-1.82519531 2.98308594 -2.37304688 3.88414062 -2.9375 4.8125 C-3.75541016 6.15248047 -3.75541016 6.15248047 -4.58984375 7.51953125 C-6.11009578 10.00703562 -6.11009578 10.00703562 -7 13 C-11.12545042 13.43248216 -15.2514199 13.85951303 -19.37792969 14.28173828 C-20.778471 14.42578844 -22.17886627 14.57126661 -23.57910156 14.71826172 C-37.898355 16.21963851 -37.898355 16.21963851 -45 16 C-44.57393781 10.78073816 -43.71289093 5.96011887 -40 2 C-37.0452975 0.82157255 -34.15736467 0.69975044 -31 0.5625 C-30.13020508 0.5001416 -29.26041016 0.4377832 -28.36425781 0.37353516 C-18.92228007 -0.23076496 -9.4550865 -0.18105485 0 0 Z " fill="#FBA77E" transform="translate(243,164)"/>
<path d="M0 0 C4.02099167 0.47784395 8.04176374 0.95751205 12.0625 1.4375 C13.7630957 1.63956055 13.7630957 1.63956055 15.49804688 1.84570312 C21.0086998 2.50441091 26.5109709 3.17943397 32 4 C33.35304209 8.05912626 32.15216503 9.77149591 30.5625 13.6875 C30.08941406 14.86699219 29.61632812 16.04648438 29.12890625 17.26171875 C28.75636719 18.16535156 28.38382812 19.06898438 28 20 C27.29875 19.70222656 26.5975 19.40445313 25.875 19.09765625 C22.93884166 17.97665014 20.05234158 17.18111893 17 16.4375 C15.989375 16.18871094 14.97875 15.93992188 13.9375 15.68359375 C11.0541086 14.94252517 11.0541086 14.94252517 8.26171875 14.74609375 C6 14 6 14 4.70703125 11.6015625 C4.41183594 10.61929688 4.11664063 9.63703125 3.8125 8.625 C2.77266799 5.27098867 1.9655654 2.9483481 0 0 Z " fill="#5271B8" transform="translate(308,166)"/>
<path d="M0 0 C-0.26554687 0.59167969 -0.53109375 1.18335938 -0.8046875 1.79296875 C-1.33449219 2.97826172 -1.33449219 2.97826172 -1.875 4.1875 C-2.22304687 4.96480469 -2.57109375 5.74210938 -2.9296875 6.54296875 C-4.06256904 9.00855392 -4.06256904 9.00855392 -4.81640625 11.73828125 C-6 14 -6 14 -8.28515625 14.75 C-9.20167969 14.8325 -10.11820313 14.915 -11.0625 15 C-16.9036626 15.78601396 -21.09018432 17.82377356 -26 21 C-26.69784331 18.565036 -27.38353822 16.12772895 -28.0625 13.6875 C-28.26166016 12.99720703 -28.46082031 12.30691406 -28.66601562 11.59570312 C-30.11328125 6.33984375 -30.11328125 6.33984375 -29 3 C-9.65957447 -0.57446809 -9.65957447 -0.57446809 0 0 Z " fill="#4157A1" transform="translate(203,167)"/>
</svg>